<svg width="1280" height="2228" viewBox="0 0 1280 2228" fill="none" xmlns="http://www.w3.org/2000/svg">
<g clip-path="url(#clip0_88_109)">
<path d="M1280 0H0V2228H1280V0Z" fill="#0A0A0A"/>
<g clip-path="url(#clip1_88_109)">
<path d="M636.203 1982.9L640 1937.73L700.109 1912.95L760.09 1888.16L798.834 1860.45L834.037 1835.41L953.42 1824.48V1920.06L761.249 1958.17L691.872 1971.87L636.203 1982.9Z" fill="#961B1E"/>
<path opacity="0.7" d="M636.203 1982.9L640 1937.73L700.109 1912.95L691.872 1971.87L636.203 1982.9Z" fill="#8B0F12"/>
<path opacity="0.7" d="M761.249 1958.17L798.834 1860.45L834.037 1835.41L953.42 1824.48V1920.06L761.249 1958.17Z" fill="#8B0F12"/>
<path d="M772.512 1960.99L820.909 1840.27L825.156 1828.87C826.057 1826.42 828.117 1824.59 830.691 1823.91L951.232 1791.49C955.094 1790.45 958.955 1793.32 958.955 1797.24V1923.66C958.955 1927.43 956.252 1930.72 952.455 1931.45L922.979 1937.21L898.652 1941.96L880.632 1945.47L857.785 1949.91L834.166 1954.56L811.512 1959.01L776.631 1965.81C773.799 1966.28 771.482 1963.61 772.512 1960.99Z" fill="black"/>
<path d="M811.448 1958.96L840.602 1888.16L834.101 1954.51L811.448 1958.96Z" fill="#D1232A"/>
<path d="M857.722 1949.91L887.133 1878.54L880.568 1945.47L857.722 1949.91Z" fill="#D1232A"/>
<path d="M898.588 1941.96L929.93 1866L922.915 1937.21L898.588 1941.96Z" fill="#D1232A"/>
<path d="M643.797 1982.9L640 1937.73L579.954 1912.95L519.973 1888.16L481.166 1860.45L446.027 1835.41L326.644 1824.48V1920.06L518.815 1958.17L588.192 1971.87L643.797 1982.9Z" fill="#961B1E"/>
<path opacity="0.7" d="M643.797 1982.9L640 1937.73L579.954 1912.95L588.192 1971.87L643.797 1982.9Z" fill="#8B0F12"/>
<path opacity="0.7" d="M518.814 1958.17L481.165 1860.45L446.026 1835.41L326.643 1824.48V1920.06L518.814 1958.17Z" fill="#8B0F12"/>
<path d="M507.489 1960.99L459.092 1840.27L454.844 1828.87C453.943 1826.42 451.884 1824.59 449.31 1823.91L328.768 1791.54C324.907 1790.5 321.045 1793.37 321.045 1797.29V1923.66C321.045 1927.43 323.748 1930.72 327.545 1931.45L357.021 1937.21L381.348 1941.96L399.368 1945.47L422.215 1949.91L445.963 1954.51L468.617 1958.96L503.498 1965.75C506.201 1966.28 508.518 1963.61 507.489 1960.99Z" fill="black"/>
<path d="M468.615 1958.96L439.461 1888.16L445.961 1954.51L468.615 1958.96Z" fill="#D1232A"/>
<path d="M422.279 1949.91L392.868 1878.54L399.432 1945.47L422.279 1949.91Z" fill="#D1232A"/>
<path d="M381.412 1941.96L350.134 1866L357.085 1937.21L381.412 1941.96Z" fill="#D1232A"/>
<path d="M725.273 1380.18V1370.14H765.368L794.844 1339.29C795.68 1338.4 796.774 1337.67 798.061 1337.2L919.568 1289.62C920.405 1289.31 920.92 1288.63 920.92 1287.9V1264.58L896.786 1251.14H889.899V1241.1H897.944C899.875 1241.1 901.677 1241.57 903.286 1242.41L929.994 1257.26C930.058 1257.31 929.994 1257.26 930.187 1257.42C932.182 1258.93 933.791 1261.91 933.791 1264.06V1290.98C933.791 1293.65 931.86 1296 928.835 1297.2L804.561 1345.83L774.507 1377.3C772.769 1379.08 770.066 1380.13 767.17 1380.13H725.273V1380.18Z" fill="black"/>
<path d="M730.615 1380.18L732.288 1376.62H767.041C768.328 1376.62 769.487 1376.15 770.259 1375.37L801.472 1343.74C802.18 1343 803.146 1342.43 804.111 1342.01L927.806 1293.6C929.157 1293.07 929.994 1291.98 929.994 1290.83V1257.26C932.311 1258.57 933.727 1260.66 933.727 1262.91V1290.98C933.727 1293.65 931.796 1296 928.771 1297.2L804.497 1345.83L774.442 1377.3C772.705 1379.08 770.001 1380.13 767.105 1380.13H730.615V1380.18Z" fill="#333333"/>
<path d="M672.308 598.226H769.423C815.889 651.659 906.697 660.391 941.321 661.698C949.109 662.012 955.158 667.24 955.158 673.566L955.158 1261.96C955.158 1268.5 948.658 1273.83 940.549 1273.83H678.615L672.308 598.226Z" fill="black"/>
<path d="M704.358 598.226H739.947C834.488 670.273 916.286 691.186 955.094 697.199V717.746C911.653 711.89 814.666 688.729 704.358 598.226Z" fill="white"/>
<path d="M554.727 1380.18V1370.14H514.632L485.156 1339.29C484.32 1338.4 483.226 1337.67 481.938 1337.2L360.432 1289.62C359.595 1289.31 359.08 1288.63 359.08 1287.9V1264.58L383.214 1251.14H390.1V1241.1H382.056C380.125 1241.1 378.323 1241.57 376.714 1242.41L350.006 1257.26C349.941 1257.31 350.006 1257.26 349.813 1257.42C347.818 1258.93 346.209 1261.91 346.209 1264.06V1290.98C346.209 1293.65 348.139 1296 351.164 1297.2L475.438 1345.83L505.493 1377.3C507.231 1379.08 509.934 1380.13 512.83 1380.13H554.727V1380.18Z" fill="black"/>
<path d="M549.385 1380.18L547.711 1376.62H512.959C511.671 1376.62 510.513 1376.15 509.741 1375.37L478.527 1343.74C477.819 1343 476.854 1342.43 475.824 1342.01L352.13 1293.6C350.778 1293.07 349.941 1291.98 349.941 1290.83V1257.26C347.625 1258.57 346.209 1260.66 346.209 1262.91V1290.98C346.209 1293.65 348.139 1296 351.164 1297.2L475.438 1345.83L505.493 1377.3C507.231 1379.08 509.934 1380.13 512.83 1380.13H549.385V1380.18Z" fill="#333333"/>
<path d="M607.693 598.226H510.578C464.112 651.659 373.304 660.391 338.68 661.698C330.892 662.012 324.843 667.24 324.843 673.566L324.843 1261.96C324.843 1268.5 331.343 1273.83 339.452 1273.83H601.386L607.693 598.226Z" fill="black"/>
<path d="M575.643 598.226H540.053C445.512 670.273 363.714 691.186 324.906 697.199V717.746C368.348 711.89 465.334 688.729 575.643 598.226Z" fill="white"/>
<path d="M782.166 1578.91L778.305 1559.61L715.685 1522.6H698.566V1533.21L782.166 1578.91Z" fill="black"/>
<path d="M791.756 1610.75L779.399 1628.52L717.874 1642.17L693.482 1633.07L791.756 1610.75Z" fill="black"/>
<path d="M653.001 1526.21L658.471 1519.83L668.962 1507.65L836.098 1602.96L825.157 1615.66L820.137 1621.52L653.001 1526.21Z" fill="black"/>
<path d="M653 1526.21L658.471 1519.83L825.156 1615.66L820.136 1621.52L653 1526.21Z" fill="#333333"/>
<path d="M655.511 1622.51L851.994 1577.23L857.335 1592.55L859.588 1599.04L663.105 1644.26L660.466 1636.68L655.511 1622.51Z" fill="black"/>
<path d="M660.466 1636.68L857.335 1592.55L859.588 1599.04L663.105 1644.26L660.466 1636.68Z" fill="#333333"/>
<path d="M674.912 1581.64L818.02 1608.7L822.236 1593.99L679.128 1566.93L674.912 1581.64Z" fill="black"/>
<path d="M674.929 1581.64L818.037 1608.71L819.468 1603.72L676.36 1576.65L674.929 1581.64Z" fill="#333333"/>
<path d="M803.532 1573H821.424V1628.52H803.532C800.25 1628.52 797.547 1626.33 797.547 1623.66V1577.86C797.547 1575.2 800.25 1573 803.532 1573Z" fill="black"/>
<path d="M497.835 1578.91L501.697 1559.61L564.316 1522.6H581.436V1533.21L497.835 1578.91Z" fill="black"/>
<path d="M488.181 1610.75L500.602 1628.52L562.128 1642.17L586.455 1633.07L488.181 1610.75Z" fill="black"/>
<path d="M627 1526.21L621.53 1519.83L611.039 1507.65L443.839 1602.96L454.844 1615.66L459.864 1621.52L627 1526.21Z" fill="black"/>
<path d="M627 1526.21L621.53 1519.83L454.844 1615.66L459.864 1621.52L627 1526.21Z" fill="#333333"/>
<path d="M624.49 1622.51L428.007 1577.23L422.666 1592.55L420.413 1599.04L616.896 1644.26L619.47 1636.68L624.49 1622.51Z" fill="black"/>
<path d="M619.471 1636.68L422.666 1592.55L420.413 1599.04L616.896 1644.26L619.471 1636.68Z" fill="#333333"/>
<path d="M600.858 1567.02L457.75 1594.08L461.966 1608.8L605.074 1581.74L600.858 1567.02Z" fill="black"/>
<path d="M603.656 1576.67L460.549 1603.74L461.979 1608.73L605.087 1581.66L603.656 1576.67Z" fill="#333333"/>
<path d="M476.468 1573H458.577V1628.52H476.468C479.75 1628.52 482.453 1626.33 482.453 1623.66V1577.86C482.453 1575.2 479.75 1573 476.468 1573Z" fill="black"/>
<path d="M467.652 517.447H812.285V451.256L467.652 451.256V517.447Z" fill="black"/>
<path d="M969.703 1711.76V1489.82L982.638 1502.57L988.624 1511.88L988.881 1512.3C991.584 1516.48 993 1521.45 993 1526.52V1675C993 1680.08 991.584 1685.04 988.881 1689.28L988.624 1689.7L982.638 1699L969.703 1711.76Z" fill="#808080"/>
<path d="M805.398 1675V1526.52C805.398 1521.45 806.814 1516.48 809.517 1512.25L809.774 1511.83L815.695 1502.52L828.631 1489.76V1711.76L815.695 1699L809.774 1689.7L809.517 1689.28C806.814 1685.1 805.398 1680.13 805.398 1675Z" fill="#808080"/>
<path opacity="0.5" d="M982.638 1699L969.702 1711.76V1489.82L982.638 1502.57L988.623 1511.88V1689.64L982.638 1699Z" fill="#808080"/>
<path opacity="0.5" d="M809.774 1689.7V1511.88L815.759 1502.57L828.695 1489.82V1711.76L815.759 1699L809.774 1689.7Z" fill="#808080"/>
<path d="M813.764 1693.57V1507.96C813.764 1496.04 819.878 1485.37 829.467 1478.16C831.591 1476.54 833.908 1475.12 836.353 1473.87C839.378 1472.35 842.596 1471.15 846.007 1470.26C848.26 1469.69 850.576 1469.22 852.893 1468.96C854.888 1468.69 856.948 1468.59 859.072 1468.59H939.261C941.385 1468.59 943.444 1468.69 945.439 1468.96C947.82 1469.22 950.137 1469.69 952.325 1470.26C955.736 1471.15 958.954 1472.35 961.979 1473.87C964.425 1475.12 966.741 1476.54 968.865 1478.16C972.984 1481.24 976.524 1485.01 979.162 1489.24C982.638 1494.84 984.633 1501.21 984.633 1507.96V1693.57C984.633 1700.36 982.638 1706.74 979.162 1712.33C976.524 1716.57 973.048 1720.28 968.865 1723.37C966.741 1724.99 964.425 1726.4 961.979 1727.65C958.954 1729.17 955.736 1730.37 952.325 1731.26C950.073 1731.84 947.756 1732.31 945.439 1732.57C943.444 1732.83 941.385 1732.93 939.261 1732.93H859.136C857.012 1732.93 854.953 1732.83 852.958 1732.57C850.576 1732.31 848.26 1731.84 846.071 1731.26C842.66 1730.37 839.443 1729.17 836.418 1727.65C833.972 1726.4 831.655 1724.99 829.532 1723.37C819.878 1716.15 813.764 1705.49 813.764 1693.57Z" fill="#1A1A1A"/>
<path d="M961.979 1727.65V1473.92C964.425 1475.18 966.741 1476.59 968.865 1478.21V1723.42C966.741 1724.99 964.425 1726.4 961.979 1727.65Z" fill="black"/>
<path d="M945.44 1732.57V1468.96C947.821 1469.22 950.138 1469.69 952.326 1470.26V1731.26C950.074 1731.84 947.821 1732.31 945.44 1732.57Z" fill="black"/>
<path d="M928.899 1732.93H935.785V1468.59H928.899V1732.93Z" fill="black"/>
<path d="M912.36 1732.93H919.246V1468.59H912.36V1732.93Z" fill="black"/>
<path d="M895.754 1732.93H902.641V1468.59H895.754V1732.93Z" fill="black"/>
<path d="M879.215 1732.93H886.102V1468.59H879.215V1732.93Z" fill="black"/>
<path d="M862.676 1732.93H869.562V1468.59H862.676V1732.93Z" fill="black"/>
<path d="M846.071 1731.26V1470.26C848.323 1469.69 850.64 1469.22 852.957 1468.96V1732.57C850.576 1732.31 848.259 1731.84 846.071 1731.26Z" fill="black"/>
<path d="M829.467 1723.37V1478.16C831.591 1476.54 833.908 1475.13 836.354 1473.87V1727.65C833.972 1726.4 831.655 1724.99 829.467 1723.37Z" fill="black"/>
<path d="M979.162 1712.33V1489.24C982.638 1494.84 984.633 1501.21 984.633 1507.96V1693.57C984.633 1700.36 982.638 1706.74 979.162 1712.33Z" fill="#FFFF00"/>
<path d="M819.234 1712.33V1489.24C815.759 1494.84 813.764 1501.21 813.764 1507.96V1693.57C813.764 1700.36 815.759 1706.74 819.234 1712.33Z" fill="#FFFF00"/>
<path d="M451.369 1711.76V1489.82L464.304 1502.57L470.29 1511.88L470.547 1512.3C473.25 1516.48 474.666 1521.45 474.666 1526.57V1675.06C474.666 1680.13 473.25 1685.1 470.547 1689.33L470.29 1689.75L464.304 1699.05L451.369 1711.76Z" fill="#808080"/>
<path d="M286.999 1675V1526.52C286.999 1521.45 288.415 1516.48 291.118 1512.25L291.376 1511.83L297.297 1502.52L310.232 1489.76V1711.76L297.297 1699L291.376 1689.7L291.118 1689.28C288.48 1685.1 286.999 1680.13 286.999 1675Z" fill="#808080"/>
<path opacity="0.5" d="M464.304 1699L451.368 1711.76V1489.82L464.304 1502.57L470.225 1511.88V1689.64L464.304 1699Z" fill="#808080"/>
<path opacity="0.5" d="M291.376 1689.7V1511.88L297.361 1502.57L310.297 1489.82V1711.76L297.361 1699L291.376 1689.7Z" fill="#808080"/>
<path d="M295.366 1693.57V1507.96C295.366 1496.04 301.48 1485.37 311.069 1478.16C313.193 1476.54 315.509 1475.12 317.955 1473.87C320.98 1472.35 324.198 1471.15 327.609 1470.26C329.861 1469.69 332.178 1469.22 334.495 1468.96C336.49 1468.69 338.549 1468.59 340.673 1468.59H420.862C422.986 1468.59 425.046 1468.69 427.041 1468.96C429.422 1469.22 431.739 1469.69 433.927 1470.26C437.338 1471.15 440.556 1472.35 443.581 1473.87C446.026 1475.12 448.343 1476.54 450.467 1478.16C454.586 1481.24 458.125 1485.01 460.764 1489.24C464.239 1494.84 466.234 1501.21 466.234 1507.96V1693.57C466.234 1700.36 464.239 1706.74 460.764 1712.33C458.125 1716.57 454.65 1720.28 450.467 1723.37C448.343 1724.99 446.026 1726.4 443.581 1727.65C440.556 1729.17 437.338 1730.37 433.927 1731.26C431.674 1731.84 429.358 1732.31 427.041 1732.57C425.046 1732.83 422.986 1732.93 420.862 1732.93H340.802C338.678 1732.93 336.619 1732.83 334.624 1732.57C332.242 1732.31 329.925 1731.84 327.737 1731.26C324.326 1730.37 321.109 1729.17 318.084 1727.65C315.638 1726.4 313.321 1724.99 311.198 1723.37C301.48 1716.15 295.366 1705.49 295.366 1693.57Z" fill="#1A1A1A"/>
<path d="M443.581 1727.65L443.581 1473.92C446.026 1475.18 448.343 1476.59 450.467 1478.21L450.467 1723.42C448.407 1724.99 446.09 1726.4 443.581 1727.65Z" fill="black"/>
<path d="M427.042 1732.57L427.042 1468.96C429.423 1469.22 431.74 1469.69 433.928 1470.26L433.928 1731.26C431.74 1731.84 429.423 1732.31 427.042 1732.57Z" fill="black"/>
<path d="M410.5 1732.93H417.387L417.387 1468.59H410.5L410.5 1732.93Z" fill="black"/>
<path d="M393.961 1732.93H400.848L400.848 1468.59H393.961L393.961 1732.93Z" fill="black"/>
<path d="M377.42 1732.93H384.307L384.307 1468.59H377.42L377.42 1732.93Z" fill="black"/>
<path d="M360.817 1732.93H367.703L367.703 1468.59H360.817L360.817 1732.93Z" fill="black"/>
<path d="M344.278 1732.93H351.164L351.164 1468.59H344.278L344.278 1732.93Z" fill="black"/>
<path d="M327.672 1731.26L327.672 1470.26C329.925 1469.69 332.242 1469.22 334.559 1468.96L334.559 1732.57C332.242 1732.31 329.925 1731.84 327.672 1731.26Z" fill="black"/>
<path d="M311.133 1723.37L311.133 1478.16C313.257 1476.54 315.574 1475.13 318.02 1473.87L318.02 1727.65C315.574 1726.4 313.257 1724.99 311.133 1723.37Z" fill="black"/>
<path d="M460.828 1712.33V1489.24C464.304 1494.84 466.299 1501.21 466.299 1507.96V1693.57C466.234 1700.36 464.304 1706.74 460.828 1712.33Z" fill="#FFFF00"/>
<path d="M300.836 1712.33V1489.24C297.361 1494.84 295.366 1501.21 295.366 1507.96V1693.57C295.366 1700.36 297.361 1706.74 300.836 1712.33Z" fill="#FFFF00"/>
<path d="M654.48 421.507H771.16C779.011 421.507 785.318 426.683 785.318 433.01V535.695C785.318 542.073 778.947 547.197 771.16 547.197H654.48C646.628 547.197 640.321 542.021 640.321 535.695V433.01C640.321 426.631 646.628 421.507 654.48 421.507Z" fill="black"/>
<path d="M641.534 533.882L826.627 516.136L825.073 505.44L639.98 523.186L641.534 533.882Z" fill="black"/>
<path d="M641.538 533.906L826.631 516.161L826.103 512.526L641.01 530.272L641.538 533.906Z" fill="#333333"/>
<path d="M689.169 585.834L773.992 485.346C774.507 484.771 775.15 484.248 775.858 483.882L810.161 467.099C812.671 465.844 815.824 466.262 817.755 467.883C818.077 468.197 818.399 468.51 818.656 468.824C818.72 468.876 818.72 468.929 818.785 469.033C819.557 470.079 819.686 471.281 819.428 472.379C819.107 473.686 818.077 474.993 816.532 475.673L783.388 491.881L699.338 591.481C697.664 593.468 694.446 594.2 691.743 593.259C691.422 593.154 691.035 592.997 690.714 592.788C690.649 592.736 690.521 592.684 690.456 592.579C687.946 591.01 687.303 588.03 689.169 585.834Z" fill="black"/>
<path d="M691.808 593.259L779.849 487.541L818.849 468.981C819.622 470.027 819.75 471.229 819.493 472.327C819.171 473.634 818.141 474.941 816.597 475.621L783.453 491.829L699.402 591.429C697.664 593.52 694.446 594.252 691.808 593.259Z" fill="#333333"/>
<path d="M812.286 496.377L798.256 495.593C795.746 495.436 793.815 493.763 793.815 491.776L792.592 464.589C792.592 462.341 794.909 460.616 797.676 460.772L815.182 461.766L812.286 496.377Z" fill="#1A1A1A"/>
<path d="M646.629 382.504C646.886 382.19 647.208 381.877 647.594 381.615C648.753 380.726 650.233 380.308 651.713 380.308C653.386 380.308 655.06 380.883 656.282 381.981L682.283 405.247L818.785 453.034C821.938 454.132 823.354 457.06 822.003 459.622C821.938 459.727 821.938 459.831 821.809 459.884C820.329 462.236 816.854 463.282 813.829 462.236L676.104 414.031C675.268 413.769 674.56 413.351 673.981 412.776L647.144 388.673C645.149 387 645.02 384.386 646.629 382.504Z" fill="black"/>
<path d="M646.628 382.504L677.455 409.587L821.873 459.884C820.393 462.236 816.918 463.282 813.893 462.236L676.168 414.031C675.331 413.769 674.623 413.351 674.044 412.776L647.207 388.673C645.148 387 645.019 384.386 646.628 382.504Z" fill="#333333"/>
<path d="M649.976 382.504H664.006C666.516 382.504 668.576 384.072 668.704 386.111L672.18 413.194C672.373 415.442 670.184 417.325 667.481 417.325H649.912V382.504H649.976Z" fill="black"/>
<path d="M625.519 421.507H508.839C500.987 421.507 494.68 426.683 494.68 433.01V535.695C494.68 542.073 501.052 547.197 508.839 547.197H625.519C633.37 547.197 639.677 542.021 639.677 535.695V433.01C639.742 426.631 633.37 421.507 625.519 421.507Z" fill="black"/>
<path d="M639.978 523.191L454.885 505.445L453.331 516.141L638.424 533.887L639.978 523.191Z" fill="black"/>
<path d="M638.954 530.243L453.861 512.498L453.333 516.132L638.426 533.878L638.954 530.243Z" fill="#333333"/>
<path d="M590.831 585.834L506.008 485.346C505.493 484.771 504.85 484.248 504.142 483.882L469.839 467.099C467.329 465.844 464.176 466.262 462.245 467.883C461.923 468.197 461.602 468.51 461.344 468.824C461.28 468.876 461.28 468.929 461.215 469.033C460.443 470.079 460.314 471.281 460.572 472.379C460.894 473.686 461.923 474.993 463.468 475.673L496.612 491.881L580.663 591.481C582.336 593.468 585.554 594.2 588.257 593.259C588.579 593.154 588.965 592.997 589.287 592.788C589.351 592.736 589.48 592.684 589.544 592.579C592.118 591.01 592.697 588.03 590.831 585.834Z" fill="black"/>
<path d="M588.256 593.259L500.215 487.541L461.214 468.981C460.442 470.027 460.313 471.229 460.571 472.327C460.893 473.634 461.922 474.941 463.467 475.621L496.611 491.829L580.662 591.429C582.335 593.52 585.553 594.252 588.256 593.259Z" fill="#333333"/>
<path d="M467.715 496.377L481.745 495.593C484.255 495.436 486.185 493.763 486.185 491.776L487.408 464.589C487.408 462.341 485.091 460.616 482.324 460.772L464.819 461.766L467.715 496.377Z" fill="#1A1A1A"/>
<path d="M633.435 382.504C633.178 382.19 632.856 381.877 632.47 381.615C631.311 380.726 629.831 380.308 628.351 380.308C626.678 380.308 625.004 380.883 623.782 381.981L597.781 405.247L461.279 453.034C458.126 454.132 456.71 457.06 458.061 459.622C458.126 459.727 458.126 459.831 458.255 459.884C459.735 462.236 463.21 463.282 466.235 462.236L603.96 414.031C604.796 413.769 605.504 413.351 606.083 412.776L632.92 388.673C634.851 387 634.98 384.386 633.435 382.504Z" fill="black"/>
<path d="M633.435 382.504L602.608 409.587L458.19 459.884C459.67 462.236 463.146 463.282 466.171 462.236L603.895 414.031C604.732 413.769 605.44 413.351 606.019 412.776L632.856 388.673C634.851 387 634.98 384.386 633.435 382.504Z" fill="#333333"/>
<path d="M630.088 382.504H616.058C613.548 382.504 611.489 384.072 611.36 386.111L607.885 413.194C607.692 415.442 609.88 417.325 612.583 417.325H630.152V382.504H630.088Z" fill="black"/>
<path d="M538.958 1692.21H741.04C744.387 1692.21 747.154 1694.4 747.154 1697.17V1738.16C747.154 1740.88 744.451 1743.13 741.04 1743.13H538.958C535.612 1743.13 532.844 1740.93 532.844 1738.16V1697.17C532.844 1694.4 535.612 1692.21 538.958 1692.21Z" fill="black"/>
<path d="M969.703 595.35V373.407L982.638 386.164L988.624 395.47L988.881 395.888C991.584 400.071 993 405.038 993 410.162V558.647C993 563.718 991.584 568.685 988.881 572.92L988.624 573.339L982.638 582.645L969.703 595.35Z" fill="#808080"/>
<path d="M805.398 558.595V410.11C805.398 405.038 806.814 400.071 809.517 395.836L809.774 395.418L815.695 386.112L828.631 373.354V595.298L815.695 582.541L809.774 573.234L809.517 572.816C806.814 568.685 805.398 563.719 805.398 558.595Z" fill="#808080"/>
<path opacity="0.5" d="M982.638 582.593L969.702 595.35V373.407L982.638 386.164L988.623 395.47V573.234L982.638 582.593Z" fill="#808080"/>
<path opacity="0.5" d="M809.774 573.286V395.47L815.759 386.164L828.695 373.407V595.35L815.759 582.593L809.774 573.286Z" fill="#808080"/>
<path d="M813.764 577.155V391.549C813.764 379.628 819.878 368.963 829.467 361.747C831.591 360.127 833.908 358.715 836.353 357.46C839.378 355.944 842.596 354.742 846.007 353.853C848.26 353.278 850.576 352.807 852.893 352.546C854.888 352.284 856.948 352.18 859.072 352.18H939.261C941.385 352.18 943.444 352.284 945.439 352.546C947.82 352.807 950.137 353.278 952.325 353.853C955.736 354.742 958.954 355.944 961.979 357.46C964.425 358.715 966.741 360.127 968.865 361.747C972.984 364.832 976.524 368.597 979.162 372.831C982.638 378.426 984.633 384.804 984.633 391.549V577.155C984.633 583.952 982.638 590.331 979.162 595.925C976.524 600.16 973.048 603.872 968.865 606.957C966.741 608.578 964.425 609.989 961.979 611.244C958.954 612.76 955.736 613.963 952.325 614.852C950.073 615.427 947.756 615.897 945.439 616.159C943.444 616.42 941.385 616.525 939.261 616.525H859.136C857.012 616.525 854.953 616.42 852.958 616.159C850.576 615.897 848.26 615.427 846.071 614.852C842.66 613.963 839.443 612.76 836.418 611.244C833.972 609.989 831.655 608.578 829.532 606.957C819.878 599.742 813.764 589.076 813.764 577.155Z" fill="#1A1A1A"/>
<path d="M961.979 611.244V357.512C964.425 358.767 966.741 360.179 968.865 361.8V607.009C966.741 608.578 964.425 609.989 961.979 611.244Z" fill="black"/>
<path d="M945.44 616.159V352.545C947.821 352.807 950.138 353.277 952.326 353.853V614.852C950.074 615.427 947.821 615.897 945.44 616.159Z" fill="black"/>
<path d="M928.899 616.525H935.785V352.18H928.899V616.525Z" fill="black"/>
<path d="M912.36 616.525H919.246V352.18H912.36V616.525Z" fill="black"/>
<path d="M895.754 616.525H902.641V352.18H895.754V616.525Z" fill="black"/>
<path d="M879.215 616.525H886.102V352.18H879.215V616.525Z" fill="black"/>
<path d="M862.676 616.525H869.562V352.18H862.676V616.525Z" fill="black"/>
<path d="M846.071 614.852V353.853C848.323 353.277 850.64 352.807 852.957 352.545V616.159C850.576 615.897 848.259 615.427 846.071 614.852Z" fill="black"/>
<path d="M829.467 606.957V361.747C831.591 360.126 833.908 358.715 836.354 357.46V611.192C833.972 609.989 831.655 608.578 829.467 606.957Z" fill="black"/>
<path d="M979.162 595.925V372.832C982.638 378.426 984.633 384.805 984.633 391.549V577.156C984.633 583.952 982.638 590.331 979.162 595.925Z" fill="#FCEE21"/>
<path d="M819.234 595.925V372.832C815.759 378.426 813.764 384.805 813.764 391.549V577.156C813.764 583.952 815.759 590.331 819.234 595.925Z" fill="#FCEE21"/>
<path d="M451.369 595.35V373.407L464.304 386.164L470.29 395.47L470.547 395.888C473.25 400.071 474.666 405.038 474.666 410.162V558.647C474.666 563.718 473.25 568.685 470.547 572.92L470.29 573.339L464.304 582.645L451.369 595.35Z" fill="#808080"/>
<path d="M286.999 558.595V410.11C286.999 405.038 288.415 400.071 291.118 395.836L291.376 395.418L297.297 386.112L310.232 373.354V595.298L297.297 582.541L291.376 573.234L291.118 572.816C288.48 568.685 286.999 563.719 286.999 558.595Z" fill="#808080"/>
<path opacity="0.5" d="M464.304 582.593L451.368 595.35V373.407L464.304 386.164L470.225 395.47V573.234L464.304 582.593Z" fill="#808080"/>
<path opacity="0.5" d="M291.376 573.286V395.47L297.361 386.164L310.297 373.407V595.35L297.361 582.593L291.376 573.286Z" fill="#808080"/>
<path d="M295.366 577.155V391.549C295.366 379.628 301.48 368.963 311.069 361.747C313.193 360.127 315.509 358.715 317.955 357.46C320.98 355.944 324.198 354.742 327.609 353.853C329.861 353.278 332.178 352.807 334.495 352.546C336.49 352.284 338.549 352.18 340.673 352.18H420.862C422.986 352.18 425.046 352.284 427.041 352.546C429.422 352.807 431.739 353.278 433.927 353.853C437.338 354.742 440.556 355.944 443.581 357.46C446.026 358.715 448.343 360.127 450.467 361.747C454.586 364.832 458.125 368.597 460.764 372.831C464.239 378.426 466.234 384.804 466.234 391.549V577.155C466.234 583.952 464.239 590.331 460.764 595.925C458.125 600.16 454.65 603.872 450.467 606.957C448.343 608.578 446.026 609.989 443.581 611.244C440.556 612.76 437.338 613.963 433.927 614.852C431.674 615.427 429.358 615.897 427.041 616.159C425.046 616.42 422.986 616.525 420.862 616.525H340.802C338.678 616.525 336.619 616.42 334.624 616.159C332.242 615.897 329.925 615.427 327.737 614.852C324.326 613.963 321.109 612.76 318.084 611.244C315.638 609.989 313.321 608.578 311.198 606.957C301.48 599.742 295.366 589.076 295.366 577.155Z" fill="#1A1A1A"/>
<path d="M443.581 611.244L443.581 357.512C446.026 358.767 448.343 360.179 450.467 361.8L450.467 607.009C448.407 608.578 446.09 609.989 443.581 611.244Z" fill="black"/>
<path d="M427.042 616.159L427.042 352.545C429.423 352.807 431.74 353.277 433.928 353.853L433.928 614.852C431.74 615.427 429.423 615.897 427.042 616.159Z" fill="black"/>
<path d="M410.5 616.525H417.387L417.387 352.18H410.5L410.5 616.525Z" fill="black"/>
<path d="M393.961 616.525H400.848L400.848 352.18H393.961L393.961 616.525Z" fill="black"/>
<path d="M377.42 616.525H384.307L384.307 352.18H377.42L377.42 616.525Z" fill="black"/>
<path d="M360.817 616.525H367.703L367.703 352.18H360.817L360.817 616.525Z" fill="black"/>
<path d="M344.278 616.525H351.164L351.164 352.18H344.278L344.278 616.525Z" fill="black"/>
<path d="M327.672 614.852L327.672 353.853C329.925 353.277 332.242 352.807 334.559 352.545L334.559 616.159C332.242 615.897 329.925 615.427 327.672 614.852Z" fill="black"/>
<path d="M311.133 606.957L311.133 361.747C313.257 360.126 315.574 358.715 318.02 357.46L318.02 611.192C315.574 609.989 313.257 608.578 311.133 606.957Z" fill="black"/>
<path d="M460.828 595.925V372.832C464.304 378.426 466.299 384.805 466.299 391.549V577.156C466.234 583.952 464.304 590.331 460.828 595.925Z" fill="#FCEE21"/>
<path d="M300.836 595.925V372.832C297.361 378.426 295.366 384.805 295.366 391.549V577.156C295.366 583.952 297.361 590.331 300.836 595.925Z" fill="#FCEE21"/>
<path d="M297.876 1059.78C297.876 1012.83 302.252 957.465 319.628 898.437C325.614 878.047 333.208 857.238 342.604 836.168C351.614 815.986 362.426 795.648 375.233 775.205C436.694 677.33 547.84 506.834 570.3 415.338C571.652 410.057 573.647 404.881 576.414 400.019C582.142 389.824 590.895 380.883 602.222 374.348C610.459 369.59 620.113 366.035 630.603 366.035H649.331C659.821 366.035 669.475 369.538 677.713 374.348C689.104 380.883 697.792 389.824 703.52 400.019C706.287 404.881 708.347 410.057 709.634 415.338C732.159 506.834 843.304 677.33 904.701 775.205C917.508 795.648 928.256 816.039 937.33 836.168C946.791 857.238 954.321 878.047 960.306 898.437C977.682 957.465 982.059 1012.83 982.059 1059.78C982.059 1098.68 977.94 1127.28 973.692 1146.31C969.38 1165.76 965.004 1175.17 965.004 1175.17L852.829 1174.7L786.863 1174.44L639.871 1173.81L492.943 1174.44L426.977 1174.7L314.802 1175.17C314.802 1175.17 310.425 1165.76 306.113 1146.31C301.995 1127.33 297.876 1098.68 297.876 1059.78Z" fill="#961B1E"/>
<path d="M786.991 1174.55C802.759 1155.83 815.18 1146.37 815.18 1146.37H975.43C983.41 1146.37 989.846 1151.7 989.846 1158.23V1214.96C989.846 1220.14 985.791 1224.69 979.87 1226.2C899.874 1247.06 827.343 1294.54 779.976 1331.29C744.644 1358.69 723.278 1380.12 723.278 1380.12C715.297 1278.8 757.065 1209.99 786.991 1174.55Z" fill="#D1232A"/>
<path d="M290.218 1214.91V1158.18C290.218 1151.65 296.718 1146.31 304.634 1146.31H464.884C464.884 1146.31 477.305 1155.72 493.072 1174.49C522.934 1209.94 564.702 1278.75 556.786 1380.12C556.786 1380.12 535.419 1358.69 500.087 1331.29C452.72 1294.54 380.189 1247.06 300.193 1226.2C294.272 1224.63 290.218 1220.09 290.218 1214.91Z" fill="#D1232A"/>
<path opacity="0.7" d="M460.315 745.665C484.964 661.384 516.177 582.75 554.727 532.401L554.599 531.303L576.48 399.966C582.208 389.771 590.961 380.831 602.288 374.295C610.525 369.537 620.179 365.982 630.669 365.982H649.397C659.887 365.982 669.541 369.485 677.779 374.295C689.17 380.831 697.858 389.771 703.586 399.966L725.467 531.303L725.339 532.401C763.889 582.75 795.102 661.384 819.687 745.665C873.94 931.062 896.529 1143.86 896.529 1143.86C896.529 1143.86 894.92 1144.69 892.217 1146.37C885.009 1150.6 869.628 1160.33 852.895 1174.76C835.004 1190.23 815.439 1211.14 802.568 1236.71C796.904 1247.95 788.988 1282.56 779.914 1331.29C744.582 1358.69 723.215 1380.12 723.215 1380.12C715.299 1278.75 757.067 1209.94 786.929 1174.49L639.937 1173.87L493.009 1174.49C522.871 1209.94 564.638 1278.75 556.723 1380.12C556.723 1380.12 535.356 1358.69 500.024 1331.29C490.949 1282.56 483.033 1247.95 477.37 1236.71C464.498 1211.2 444.934 1190.28 427.042 1174.76C410.31 1160.27 394.928 1150.6 387.72 1146.37C384.953 1144.69 383.408 1143.86 383.408 1143.86C383.408 1143.86 406.062 931.062 460.315 745.665Z" fill="#8B0F12"/>
<path d="M488.631 745.665C509.418 661.384 535.676 582.75 568.177 532.401L568.112 531.303L593.083 353.225C593.855 347.579 597.202 342.664 602.029 339.161C606.92 335.658 613.291 333.514 620.242 333.514H659.757C673.658 333.514 685.371 341.984 686.98 353.225L711.951 531.303L711.887 532.401C744.387 582.75 770.58 661.384 791.368 745.665C837.062 931.062 856.111 1143.86 856.111 1143.86C856.111 1143.86 801.794 1178.21 776.952 1236.71C754.62 1289.2 691.099 1853.34 678.292 1976.63C677.069 1988.97 664.326 1998.43 649.138 1998.43H630.925C615.672 1998.43 602.994 1988.97 601.707 1976.63C588.964 1853.34 525.379 1289.2 503.111 1236.71C478.269 1178.26 423.952 1143.86 423.952 1143.86C423.952 1143.86 443.002 931.062 488.631 745.665Z" fill="#AD1B1F"/>
<path d="M696.441 1236.71C696.441 1236.71 728.426 1134.08 787.957 1114.11C787.957 1114.11 769.229 922.959 754.169 836.168C754.169 836.168 707.832 881.498 688.396 977.072L696.441 1236.71Z" fill="white"/>
<path d="M583.623 1236.71C583.623 1236.71 551.638 1134.08 492.107 1114.11C492.107 1114.11 510.835 922.959 525.895 836.168C525.895 836.168 572.232 881.498 591.668 977.072L583.623 1236.71Z" fill="white"/>
<path d="M488.632 745.665C490.177 739.443 491.721 733.222 493.33 727.052C494.296 723.288 495.261 719.523 496.291 715.811C515.727 643.033 539.539 576.737 568.113 532.401L568.049 531.303L593.02 353.225C593.792 347.579 597.139 342.664 601.965 339.161C606.857 335.658 613.228 333.514 620.179 333.514H659.694C673.595 333.514 685.308 341.984 686.917 353.225L711.888 531.303L711.823 532.401C740.398 576.737 764.21 643.033 783.646 715.811C784.676 719.523 785.641 723.288 786.607 727.052C788.216 733.222 789.76 739.443 791.305 745.665C738.596 784.198 707.383 843.801 707.383 843.801H572.554C572.554 843.801 541.341 784.25 488.632 745.665Z" fill="black"/>
<path d="M682.862 843.801C707.253 773.009 758.224 732.437 783.709 715.811C784.739 719.523 785.705 723.288 786.67 727.052C761.635 744.515 717.808 782.264 695.733 843.801H682.862Z" fill="white"/>
<path d="M493.328 727.052C494.294 723.288 495.259 719.523 496.289 715.811C521.774 732.437 572.745 773.009 597.137 843.801H584.265C562.191 782.264 518.363 744.515 493.328 727.052Z" fill="white"/>
<path d="M651.713 1342.32L650.748 1404.91C650.748 1404.96 650.748 1405.01 650.748 1405.01L643.926 1455.52C643.926 1455.73 643.797 1455.88 643.668 1456.04L641.351 1457.98C641.158 1458.13 640.965 1458.18 640.772 1458.18H639.485C639.292 1458.18 639.034 1458.13 638.906 1457.98L636.589 1456.04C636.396 1455.88 636.331 1455.73 636.331 1455.52L629.51 1405.01C629.51 1404.96 629.51 1404.96 629.51 1404.91L628.544 1342.32C628.544 1342.01 628.673 1341.7 628.866 1341.49C629.059 1341.28 629.317 1341.17 629.574 1341.17H650.812C651.069 1341.17 651.327 1341.28 651.52 1341.49C651.584 1341.7 651.713 1342.01 651.713 1342.32Z" fill="#EF2B3E"/>
<path d="M600.098 1370.61H679.901C695.025 1361.83 705.515 1347.71 706.738 1331.29L727.525 1051.05C727.011 1050.63 726.817 1050.43 726.303 1050.01H557.172C555.305 1051.58 554.404 1052.36 552.602 1053.98L573.196 1331.29C574.484 1347.71 584.974 1361.83 600.098 1370.61Z" fill="black"/>
<path d="M596.752 1288.42H683.441V1048.28H596.752V1288.42Z" fill="#1A1A1A"/>
<path d="M626.42 1338.25C629.896 1338.51 632.92 1336.42 633.242 1333.59C633.564 1330.77 630.99 1328.31 627.514 1328.05C615.286 1327.16 607.692 1325.23 603.509 1323.4H628.351C630.668 1325.38 635.044 1326.69 640.064 1326.69C645.084 1326.69 649.46 1325.33 651.777 1323.4H676.619C672.371 1325.23 664.842 1327.16 652.549 1328.05C649.074 1328.31 646.564 1330.77 646.821 1333.59C647.143 1336.42 650.168 1338.51 653.643 1338.25C688.396 1335.68 693.545 1325.7 693.545 1319.95C693.545 1314.2 688.332 1304.21 653.643 1301.65C653.45 1301.65 653.257 1301.65 653.064 1301.65C649.846 1301.65 647.079 1303.63 646.821 1306.3C646.5 1309.12 649.074 1311.58 652.549 1311.84C664.777 1312.73 672.371 1314.67 676.555 1316.5H651.262C648.817 1314.77 644.698 1313.62 640 1313.62C635.302 1313.62 631.183 1314.77 628.737 1316.5H603.445C607.692 1314.67 615.222 1312.73 627.45 1311.84C630.925 1311.58 633.435 1309.12 633.178 1306.3C632.856 1303.63 630.153 1301.65 626.935 1301.65C626.742 1301.65 626.549 1301.65 626.356 1301.65C591.603 1304.21 586.454 1314.2 586.454 1319.95C586.519 1325.65 591.667 1335.63 626.42 1338.25Z" fill="#1A1A1A"/>
<path d="M562.514 820.169C562.514 578.462 597.202 382.504 640 382.504C682.798 382.504 717.486 578.462 717.486 820.169C717.486 901.208 713.561 977.124 706.803 1042.27C706.546 1044.88 706.224 1047.45 705.966 1050.06H574.098C573.841 1047.5 573.519 1044.88 573.262 1042.27C566.44 977.124 562.514 901.208 562.514 820.169Z" fill="#D1232A"/>
<path d="M580.211 1043C591.216 1025.49 613.87 1013.46 639.999 1013.46C666.128 1013.46 688.782 1025.49 699.852 1043C699.594 1045.35 699.337 1047.65 699.079 1050.01H580.984C580.726 1047.71 580.469 1045.35 580.211 1043Z" fill="black"/>
<path d="M783.26 395.575L764.918 426.997V289.648L783.002 232.293H788.537V382.347L783.26 395.575Z" fill="black"/>
<path d="M496.805 395.575L515.146 426.997V289.648L496.998 232.293H491.527V382.347L496.805 395.575Z" fill="black"/>
<path d="M492.558 340.416L787.443 340.416V267.114L492.558 267.114V340.416Z" fill="black"/>
<path d="M492.558 296.393L787.443 296.393V267.114L492.558 267.114V296.393Z" fill="#D1232A"/>
<path d="M492.558 272.029L787.443 272.029V262.147L492.558 262.147V272.029Z" fill="#333333"/>
<path d="M492.558 379.472L787.443 379.472V339.213L492.558 339.213V379.472Z" fill="black"/>
<path d="M492.558 350.768L787.443 350.768V339.161L492.558 339.161V350.768Z" fill="#333333"/>
<path d="M774.829 426.997L792.656 379.837V232.293C792.656 230.463 790.211 229 787.122 229C784.032 229 781.587 230.463 781.587 232.293V379.105L763.438 426.997H774.829Z" fill="#1A1A1A"/>
<path d="M505.171 426.997L487.344 379.837V232.293C487.344 230.463 489.79 229 492.879 229C495.968 229 498.414 230.463 498.414 232.293V379.105L516.562 426.997H505.171Z" fill="#1A1A1A"/>
<path d="M613.164 949.153L615.416 865.97C615.416 865.917 615.416 865.865 615.416 865.813L631.119 798.629C631.184 798.367 631.377 798.106 631.763 797.949L637.04 795.387C637.426 795.178 637.941 795.073 638.456 795.073H641.481C641.996 795.073 642.511 795.178 642.897 795.387L648.174 797.949C648.56 798.106 648.753 798.367 648.818 798.629L664.521 865.813C664.521 865.865 664.521 865.917 664.521 865.97L666.773 949.153C666.773 949.623 666.516 949.989 666.066 950.251C665.615 950.512 665.036 950.669 664.392 950.669H615.545C614.901 950.669 614.322 950.512 613.872 950.251C613.421 949.989 613.164 949.571 613.164 949.153Z" fill="#EF2B3E"/>
<path d="M597.653 1679.76C597.653 1660.78 616.639 1645.36 640.001 1645.36C663.362 1645.36 682.348 1660.78 682.348 1679.76C682.348 1698.74 663.362 1714.16 640.001 1714.16C616.639 1714.16 597.653 1698.79 597.653 1679.76Z" fill="#FCEE21"/>
<path d="M907.727 867.59C907.727 852.532 920.276 839.88 937.396 836.168C946.856 857.238 954.386 878.047 960.371 898.437C956.381 899.535 952.198 900.11 947.757 900.11C925.618 900.11 907.727 885.576 907.727 867.59Z" fill="#FCEE21"/>
<path d="M319.629 898.489C325.614 878.099 333.209 857.29 342.605 836.22C359.659 839.932 372.273 852.585 372.273 867.642C372.273 885.628 354.382 900.163 332.243 900.163C327.867 900.11 323.619 899.535 319.629 898.489Z" fill="#FCEE21"/>
<path d="M602.543 1810.68H677.52V1800.64H602.543V1810.68Z" fill="white"/>
<path d="M609.495 1893.18H670.506V1883.14H609.495V1893.18Z" fill="white"/>
<path d="M609.495 1915.3H670.506V1898.93H609.495V1915.3Z" fill="white"/>
<path d="M602.543 1843.98H677.52V1819.46H602.543V1843.98Z" fill="white"/>
<path d="M560.197 1420.17H719.867V1391.52H560.197V1420.17Z" fill="white"/>
</g>
</g>
<defs>
<clipPath id="clip0_88_109">
<rect width="1280" height="2228" fill="white"/>
</clipPath>
<clipPath id="clip1_88_109">
<rect width="706" height="1769.43" fill="white" transform="matrix(-1 0 0 -1 993 1998.43)"/>
</clipPath>
</defs>
</svg>
