<svg width="1280" height="2228" viewBox="0 0 1280 2228" fill="none" xmlns="http://www.w3.org/2000/svg">
<g clip-path="url(#clip0_88_119)">
<path d="M1280 0H0V2228H1280V0Z" fill="#0A0A0A"/>
<path d="M643.663 244.158L639.999 288.257L582.004 312.451L524.134 336.644L486.753 363.696L452.788 388.144L337.605 398.812V305.509L523.016 268.3L589.952 254.928L643.663 244.158Z" fill="#006837"/>
<path opacity="0.7" d="M643.662 244.158L639.999 288.257L582.004 312.451L589.952 254.928L643.662 244.158Z" fill="#8B0F12"/>
<path opacity="0.7" d="M523.016 268.303L486.753 363.698L452.788 388.146L337.605 398.814V305.511L523.016 268.303Z" fill="#8B0F12"/>
<path d="M512.15 265.545L465.456 383.398L461.357 394.525C460.488 396.924 458.501 398.71 456.017 399.374L339.717 431.019C335.991 432.04 332.266 429.232 332.266 425.404V301.988C332.266 298.313 334.874 295.097 338.537 294.383L366.976 288.768L390.447 284.124L407.833 280.704L429.876 276.365L452.664 271.823L474.521 267.484L508.176 260.849C510.908 260.39 513.143 262.993 512.15 265.545Z" fill="black"/>
<path d="M474.583 267.535L446.455 336.644L452.726 271.874L474.583 267.535Z" fill="#06B253"/>
<path d="M429.939 276.362L401.562 346.033L407.896 280.701L429.939 276.362Z" fill="#06B253"/>
<path d="M390.509 284.123L360.27 358.285L367.038 288.768L390.509 284.123Z" fill="#06B253"/>
<path d="M636.336 244.158L639.999 288.257L697.932 312.451L755.803 336.644L793.246 363.696L827.148 388.144L942.331 398.812V305.509L756.921 268.3L689.985 254.928L636.336 244.158Z" fill="#006837"/>
<path opacity="0.7" d="M636.336 244.158L639.999 288.257L697.932 312.451L689.985 254.928L636.336 244.158Z" fill="#8B0F12"/>
<path opacity="0.7" d="M756.922 268.303L793.246 363.698L827.149 388.146L942.332 398.814V305.511L756.922 268.303Z" fill="#8B0F12"/>
<path d="M767.85 265.545L814.544 383.398L818.643 394.525C819.512 396.924 821.499 398.711 823.983 399.374L940.283 430.968C944.009 431.989 947.734 429.182 947.734 425.354V301.988C947.734 298.313 945.126 295.098 941.463 294.383L913.024 288.769L889.553 284.124L872.167 280.704L850.124 276.366L827.211 271.874L805.355 267.536L771.7 260.901C769.092 260.39 766.857 262.993 767.85 265.545Z" fill="black"/>
<path d="M805.354 267.535L833.482 336.644L827.21 271.874L805.354 267.535Z" fill="#06B253"/>
<path d="M850.061 276.362L878.437 346.033L872.104 280.701L850.061 276.362Z" fill="#06B253"/>
<path d="M889.49 284.123L919.668 358.285L912.961 288.768L889.49 284.123Z" fill="#06B253"/>
<path d="M557.727 832.558V842.357H519.043L490.604 872.471C489.797 873.339 488.741 874.054 487.5 874.513L370.268 920.96C369.46 921.266 368.964 921.93 368.964 922.645V945.409L392.249 958.526H398.893V968.326H391.131C389.268 968.326 387.529 967.867 385.977 966.999L360.208 952.503C360.146 952.452 360.208 952.503 360.022 952.35C358.097 950.87 356.545 947.961 356.545 945.868V919.582C356.545 916.979 358.408 914.682 361.326 913.508L481.228 866.04L510.226 835.314C511.902 833.578 514.51 832.558 517.304 832.558H557.727Z" fill="black"/>
<path d="M552.574 832.558L550.959 836.028H517.429C516.187 836.028 515.069 836.488 514.324 837.253L484.209 868.133C483.526 868.848 482.595 869.409 481.663 869.817L362.32 917.081C361.016 917.592 360.209 918.663 360.209 919.786V952.554C357.973 951.278 356.607 949.237 356.607 947.042V919.633C356.607 917.03 358.47 914.733 361.389 913.559L481.291 866.091L510.288 835.365C511.965 833.629 514.573 832.609 517.367 832.609H552.574V832.558Z" fill="#333333"/>
<path d="M608.829 1595.92H515.131C470.299 1543.76 382.686 1535.23 349.28 1533.96C341.766 1533.65 335.93 1528.55 335.93 1522.37V947.959C335.93 941.579 342.201 936.373 350.025 936.373H602.744L608.829 1595.92Z" fill="black"/>
<path d="M577.907 1595.92H543.57C452.355 1525.59 373.434 1505.17 335.992 1499.3V1479.25C377.905 1484.96 471.48 1507.57 577.907 1595.92Z" fill="white"/>
<path d="M722.275 832.558V842.357H760.959L789.398 872.471C790.205 873.339 791.261 874.054 792.503 874.513L909.735 920.96C910.542 921.266 911.039 921.93 911.039 922.645V945.409L887.754 958.526H881.11V968.326H888.872C890.734 968.326 892.473 967.867 894.025 966.999L919.794 952.503C919.856 952.452 919.794 952.503 919.98 952.35C921.905 950.87 923.457 947.961 923.457 945.868V919.582C923.457 916.979 921.595 914.682 918.676 913.508L798.774 866.04L769.777 835.314C768.1 833.578 765.492 832.558 762.698 832.558H722.275Z" fill="black"/>
<path d="M727.43 832.558L729.044 836.028H762.574C763.816 836.028 764.934 836.488 765.679 837.253L795.794 868.133C796.477 868.848 797.409 869.409 798.34 869.817L917.683 917.081C918.987 917.592 919.795 918.663 919.795 919.786V952.554C922.03 951.278 923.396 949.237 923.396 947.042V919.633C923.396 917.03 921.533 914.733 918.615 913.559L798.713 866.091L769.715 835.365C768.039 833.629 765.431 832.609 762.637 832.609H727.43V832.558Z" fill="#333333"/>
<path d="M671.172 1595.92H764.871C809.702 1543.76 897.315 1535.23 930.722 1533.96C938.235 1533.65 944.072 1528.55 944.072 1522.37V947.959C944.072 941.579 937.8 936.373 929.976 936.373H677.257L671.172 1595.92Z" fill="black"/>
<path d="M702.094 1595.92H736.431C827.646 1525.59 906.567 1505.17 944.009 1499.3V1479.25C902.096 1484.96 808.522 1507.57 702.094 1595.92Z" fill="white"/>
<path d="M502.834 638.553L506.56 657.387L566.976 693.524H583.493V683.162L502.834 638.553Z" fill="black"/>
<path d="M493.582 607.47L505.504 590.117L564.865 576.795L588.398 585.676L493.582 607.47Z" fill="black"/>
<path d="M627.456 689.999L622.178 696.226L612.057 708.119L450.801 615.072L461.357 602.669L466.2 596.952L627.456 689.999Z" fill="black"/>
<path d="M627.457 689.999L622.179 696.226L461.357 602.669L466.201 596.952L627.457 689.999Z" fill="#333333"/>
<path d="M625.034 595.985L435.464 640.186L430.31 625.231L428.137 618.902L617.707 574.752L620.253 582.153L625.034 595.985Z" fill="black"/>
<path d="M620.253 582.153L430.31 625.231L428.137 618.902L617.707 574.752L620.253 582.153Z" fill="#333333"/>
<path d="M606.317 635.879L468.244 609.463L464.176 623.83L602.249 650.247L606.317 635.879Z" fill="black"/>
<path d="M606.347 635.86L468.273 609.443L466.894 614.315L604.967 640.732L606.347 635.86Z" fill="#333333"/>
<path d="M482.219 644.319H464.957V590.113H482.219C485.386 590.113 487.994 592.257 487.994 594.86V639.572C487.994 642.175 485.386 644.319 482.219 644.319Z" fill="black"/>
<path d="M777.163 638.553L773.437 657.387L713.021 693.524H696.504V683.162L777.163 638.553Z" fill="black"/>
<path d="M786.477 607.47L774.493 590.117L715.131 576.795L691.66 585.676L786.477 607.47Z" fill="black"/>
<path d="M652.541 689.999L657.819 696.226L667.94 708.119L829.258 615.072L818.64 602.669L813.797 596.952L652.541 689.999Z" fill="black"/>
<path d="M652.541 689.999L657.819 696.226L818.64 602.669L813.797 596.952L652.541 689.999Z" fill="#333333"/>
<path d="M654.963 595.985L844.534 640.186L849.687 625.231L851.861 618.902L662.29 574.752L659.806 582.153L654.963 595.985Z" fill="black"/>
<path d="M659.807 582.153L849.688 625.231L851.861 618.902L662.29 574.752L659.807 582.153Z" fill="#333333"/>
<path d="M677.763 650.156L815.836 623.739L811.768 609.372L673.695 635.788L677.763 650.156Z" fill="black"/>
<path d="M675.107 640.696L813.18 614.279L811.8 609.407L673.727 635.824L675.107 640.696Z" fill="#333333"/>
<path d="M797.777 644.319H815.039V590.113H797.777C794.61 590.113 792.002 592.257 792.002 594.86V639.572C792.002 642.175 794.61 644.319 797.777 644.319Z" fill="black"/>
<path d="M806.285 1674.78H473.775V1739.4H806.285V1674.78Z" fill="black"/>
<path d="M321.896 508.857V725.525L309.415 713.071L303.64 703.986L303.392 703.578C300.784 699.495 299.418 694.646 299.418 689.695V544.739C299.418 539.788 300.784 534.939 303.392 530.805L303.64 530.397L309.415 521.311L321.896 508.857Z" fill="#808080"/>
<path d="M480.42 544.739V689.695C480.42 694.646 479.054 699.495 476.446 703.629L476.197 704.037L470.485 713.123L458.004 725.576V508.857L470.485 521.311L476.197 530.397L476.446 530.805C479.054 534.888 480.42 539.737 480.42 544.739Z" fill="#808080"/>
<path opacity="0.5" d="M309.415 521.31L321.896 508.856V725.524L309.415 713.07L303.641 703.985V530.447L309.415 521.31Z" fill="#808080"/>
<path opacity="0.5" d="M476.197 530.396V703.985L470.422 713.07L457.941 725.524V508.856L470.422 521.31L476.197 530.396Z" fill="#808080"/>
<path d="M472.348 526.62V707.815C472.348 719.452 466.449 729.865 457.197 736.908C455.148 738.49 452.913 739.869 450.553 741.094C447.635 742.574 444.53 743.748 441.239 744.615C439.066 745.177 436.83 745.636 434.533 745.891C432.608 746.147 430.621 746.249 428.572 746.249H351.266C349.217 746.249 347.23 746.147 345.305 745.891C343.008 745.636 340.772 745.177 338.661 744.615C335.37 743.748 332.265 742.574 329.347 741.094C326.988 739.869 324.752 738.49 322.641 736.908C318.667 733.897 315.252 730.222 312.706 726.088C309.415 720.626 307.49 714.399 307.49 707.815V526.62C307.49 519.985 309.415 513.758 312.768 508.297C315.314 504.162 318.667 500.538 322.703 497.527C324.752 495.945 326.988 494.567 329.409 493.342C332.328 491.861 335.432 490.688 338.723 489.82C340.896 489.258 343.132 488.799 345.367 488.544C347.292 488.289 349.279 488.187 351.328 488.187H428.572C430.621 488.187 432.608 488.289 434.533 488.544C436.83 488.799 439.066 489.258 441.239 489.82C444.53 490.688 447.635 491.861 450.553 493.342C452.913 494.567 455.148 495.945 457.197 497.527C466.449 504.571 472.348 514.983 472.348 526.62Z" fill="#1A1A1A"/>
<path d="M329.347 493.34V741.041C326.987 739.816 324.752 738.438 322.641 736.855V497.474C324.752 495.943 326.987 494.565 329.347 493.34Z" fill="black"/>
<path d="M345.304 488.545V745.892C343.007 745.637 340.771 745.178 338.66 744.616V489.821C340.833 489.259 343.007 488.8 345.304 488.545Z" fill="black"/>
<path d="M361.263 488.187H354.619V746.249H361.263V488.187Z" fill="black"/>
<path d="M377.22 488.187H370.576V746.249H377.22V488.187Z" fill="black"/>
<path d="M393.24 488.187H386.596V746.249H393.24V488.187Z" fill="black"/>
<path d="M409.199 488.187H402.555V746.249H409.199V488.187Z" fill="black"/>
<path d="M425.156 488.187H418.512V746.249H425.156V488.187Z" fill="black"/>
<path d="M441.177 489.821V744.616C439.004 745.178 436.768 745.637 434.471 745.892V488.545C436.83 488.8 439.066 489.259 441.177 489.821Z" fill="black"/>
<path d="M457.197 497.525V736.906C455.148 738.489 452.912 739.867 450.553 741.092V493.34C452.85 494.565 455.086 495.943 457.197 497.525Z" fill="black"/>
<path d="M312.768 508.299V726.09C309.415 720.628 307.49 714.401 307.49 707.817V526.622C307.49 519.987 309.415 513.76 312.768 508.299Z" fill="#FFFF00"/>
<path d="M467.07 508.299V726.09C470.423 720.628 472.348 714.401 472.348 707.817V526.622C472.348 519.987 470.423 513.76 467.07 508.299Z" fill="#FFFF00"/>
<path d="M821.995 508.857V725.525L809.515 713.071L803.74 703.986L803.492 703.578C800.884 699.495 799.518 694.646 799.518 689.644V544.688C799.518 539.737 800.884 534.888 803.492 530.754L803.74 530.346L809.515 521.26L821.995 508.857Z" fill="#808080"/>
<path d="M980.582 544.739V689.695C980.582 694.646 979.216 699.495 976.608 703.629L976.359 704.037L970.647 713.123L958.166 725.576V508.857L970.647 521.311L976.359 530.397L976.608 530.805C979.154 534.888 980.582 539.737 980.582 544.739Z" fill="#808080"/>
<path opacity="0.5" d="M809.515 521.31L821.996 508.856V725.524L809.515 713.07L803.803 703.985V530.447L809.515 521.31Z" fill="#808080"/>
<path opacity="0.5" d="M976.359 530.396V703.985L970.584 713.07L958.104 725.524V508.856L970.584 521.31L976.359 530.396Z" fill="#808080"/>
<path d="M972.51 526.62V707.815C972.51 719.452 966.611 729.865 957.359 736.908C955.31 738.49 953.075 739.869 950.715 741.094C947.797 742.574 944.692 743.748 941.401 744.615C939.228 745.177 936.993 745.636 934.757 745.891C932.832 746.147 930.845 746.249 928.796 746.249H851.428C849.379 746.249 847.392 746.147 845.467 745.891C843.17 745.636 840.934 745.177 838.823 744.615C835.532 743.748 832.428 742.574 829.509 741.094C827.15 739.869 824.914 738.49 822.865 736.908C818.891 733.897 815.476 730.222 812.93 726.088C809.577 720.626 807.652 714.399 807.652 707.815V526.62C807.652 519.985 809.577 513.758 812.93 508.297C815.476 504.162 818.829 500.538 822.865 497.527C824.914 495.945 827.15 494.567 829.509 493.342C832.428 491.861 835.532 490.688 838.823 489.82C840.996 489.258 843.232 488.799 845.467 488.544C847.392 488.289 849.379 488.187 851.428 488.187H928.672C930.721 488.187 932.708 488.289 934.633 488.544C936.93 488.799 939.166 489.258 941.277 489.82C944.568 490.688 947.673 491.861 950.591 493.342C952.951 494.567 955.186 495.945 957.235 497.527C966.611 504.571 972.51 514.983 972.51 526.62Z" fill="#1A1A1A"/>
<path d="M829.509 493.34V741.041C827.15 739.816 824.914 738.438 822.865 736.855V497.474C824.852 495.943 827.088 494.565 829.509 493.34Z" fill="black"/>
<path d="M845.466 488.545V745.892C843.169 745.637 840.933 745.178 838.822 744.616V489.821C840.933 489.259 843.169 488.8 845.466 488.545Z" fill="black"/>
<path d="M861.425 488.187H854.781V746.249H861.425V488.187Z" fill="black"/>
<path d="M877.382 488.187H870.738V746.249H877.382V488.187Z" fill="black"/>
<path d="M893.341 488.187H886.697V746.249H893.341V488.187Z" fill="black"/>
<path d="M909.361 488.187H902.717V746.249H909.361V488.187Z" fill="black"/>
<path d="M925.32 488.187H918.676V746.249H925.32V488.187Z" fill="black"/>
<path d="M941.339 489.821V744.616C939.166 745.178 936.931 745.637 934.695 745.892V488.545C936.931 488.8 939.166 489.259 941.339 489.821Z" fill="black"/>
<path d="M957.296 497.525V736.906C955.247 738.489 953.012 739.867 950.652 741.092V493.34C953.012 494.565 955.247 495.943 957.296 497.525Z" fill="black"/>
<path d="M812.868 508.299V726.09C809.515 720.628 807.59 714.401 807.59 707.817V526.622C807.652 519.987 809.515 513.76 812.868 508.299Z" fill="#FFFF00"/>
<path d="M967.23 508.299V726.09C970.584 720.628 972.508 714.401 972.508 707.817V526.622C972.508 519.987 970.584 513.76 967.23 508.299Z" fill="#FFFF00"/>
<path d="M626.028 1768.44H513.453C505.878 1768.44 499.793 1763.39 499.793 1757.21V1656.97C499.793 1650.74 505.94 1645.74 513.453 1645.74H626.028C633.604 1645.74 639.689 1650.79 639.689 1656.97V1757.21C639.689 1763.44 633.604 1768.44 626.028 1768.44Z" fill="black"/>
<path d="M638.525 1658.74L459.943 1676.06L461.442 1686.5L640.024 1669.18L638.525 1658.74Z" fill="black"/>
<path d="M638.515 1658.72L459.934 1676.04L460.443 1679.59L639.024 1662.27L638.515 1658.72Z" fill="#333333"/>
<path d="M592.561 1608.02L510.722 1706.12C510.225 1706.68 509.604 1707.19 508.921 1707.55L475.825 1723.94C473.404 1725.16 470.361 1724.75 468.498 1723.17C468.188 1722.86 467.877 1722.56 467.629 1722.25C467.567 1722.2 467.567 1722.15 467.505 1722.05C466.76 1721.03 466.635 1719.85 466.884 1718.78C467.194 1717.5 468.188 1716.23 469.678 1715.56L501.656 1699.74L582.75 1602.51C584.364 1600.57 587.469 1599.86 590.077 1600.77C590.387 1600.88 590.76 1601.03 591.07 1601.23C591.132 1601.28 591.257 1601.34 591.319 1601.44C593.74 1602.97 594.361 1605.88 592.561 1608.02Z" fill="black"/>
<path d="M590.014 1600.77L505.071 1703.98L467.442 1722.1C466.697 1721.08 466.573 1719.9 466.821 1718.83C467.132 1717.55 468.125 1716.28 469.616 1715.61L501.594 1699.79L582.687 1602.56C584.364 1600.52 587.468 1599.85 590.014 1600.77Z" fill="#333333"/>
<path d="M473.777 1695.35L487.313 1696.12C489.735 1696.27 491.597 1697.9 491.597 1699.84L492.777 1726.38C492.777 1728.58 490.542 1730.26 487.872 1730.11L470.982 1729.14L473.777 1695.35Z" fill="#1A1A1A"/>
<path d="M633.603 1806.52C633.355 1806.82 633.045 1807.13 632.672 1807.38C631.554 1808.25 630.126 1808.66 628.698 1808.66C627.084 1808.66 625.469 1808.1 624.289 1807.03L599.204 1784.31L467.504 1737.66C464.462 1736.59 463.095 1733.73 464.399 1731.23C464.462 1731.13 464.462 1731.03 464.586 1730.97C466.014 1728.68 469.367 1727.66 472.285 1728.68L605.165 1775.74C605.972 1775.99 606.655 1776.4 607.214 1776.96L633.107 1800.49C635.032 1802.13 635.156 1804.68 633.603 1806.52Z" fill="black"/>
<path d="M633.603 1806.52L603.861 1780.08L464.523 1730.97C465.952 1728.68 469.305 1727.66 472.223 1728.68L605.103 1775.74C605.91 1775.99 606.593 1776.4 607.152 1776.96L633.044 1800.49C635.031 1802.13 635.156 1804.68 633.603 1806.52Z" fill="#333333"/>
<path d="M630.375 1806.52H616.839C614.417 1806.52 612.43 1804.99 612.306 1803L608.953 1776.56C608.767 1774.36 610.878 1772.52 613.486 1772.52H630.437V1806.52H630.375Z" fill="black"/>
<path d="M653.972 1768.44H766.547C774.122 1768.44 780.207 1763.39 780.207 1757.21V1656.97C780.207 1650.74 774.06 1645.74 766.547 1645.74H653.972C646.396 1645.74 640.311 1650.79 640.311 1656.97V1757.21C640.249 1763.44 646.396 1768.44 653.972 1768.44Z" fill="black"/>
<path d="M640.028 1669.17L818.609 1686.49L820.109 1676.05L641.527 1658.73L640.028 1669.17Z" fill="black"/>
<path d="M641.009 1662.29L819.59 1679.61L820.099 1676.07L641.518 1658.74L641.009 1662.29Z" fill="#333333"/>
<path d="M687.439 1608.02L769.278 1706.12C769.775 1706.68 770.396 1707.19 771.079 1707.55L804.174 1723.94C806.596 1725.16 809.638 1724.75 811.501 1723.17C811.812 1722.86 812.122 1722.56 812.371 1722.25C812.433 1722.2 812.433 1722.15 812.495 1722.05C813.24 1721.03 813.364 1719.85 813.116 1718.78C812.805 1717.5 811.812 1716.23 810.321 1715.56L778.343 1699.74L697.25 1602.51C695.635 1600.57 692.531 1599.86 689.923 1600.77C689.612 1600.88 689.24 1601.03 688.929 1601.23C688.867 1601.28 688.743 1601.34 688.681 1601.44C686.197 1602.97 685.638 1605.88 687.439 1608.02Z" fill="black"/>
<path d="M689.922 1600.77L774.865 1703.98L812.494 1722.1C813.239 1721.08 813.363 1719.9 813.115 1718.83C812.804 1717.55 811.811 1716.28 810.321 1715.61L778.343 1699.79L697.249 1602.56C695.634 1600.52 692.53 1599.85 689.922 1600.77Z" fill="#333333"/>
<path d="M806.223 1695.35L792.687 1696.12C790.265 1696.27 788.402 1697.9 788.402 1699.84L787.223 1726.38C787.223 1728.58 789.458 1730.26 792.128 1730.11L809.017 1729.14L806.223 1695.35Z" fill="#1A1A1A"/>
<path d="M646.332 1806.52C646.581 1806.82 646.891 1807.13 647.264 1807.38C648.382 1808.25 649.81 1808.66 651.238 1808.66C652.852 1808.66 654.467 1808.1 655.646 1807.03L680.732 1784.31L812.432 1737.66C815.474 1736.59 816.84 1733.73 815.599 1731.23C815.536 1731.13 815.536 1731.03 815.412 1730.97C813.984 1728.68 810.631 1727.66 807.713 1728.68L674.833 1775.74C674.026 1775.99 673.343 1776.4 672.784 1776.96L646.891 1800.49C644.966 1802.13 644.842 1804.68 646.332 1806.52Z" fill="black"/>
<path d="M646.332 1806.52L676.075 1780.08L815.412 1730.97C813.984 1728.68 810.631 1727.66 807.713 1728.68L674.833 1775.74C674.026 1775.99 673.343 1776.4 672.784 1776.96L646.891 1800.49C644.966 1802.13 644.842 1804.68 646.332 1806.52Z" fill="#333333"/>
<path d="M649.562 1806.52H663.098C665.52 1806.52 667.507 1804.99 667.631 1803L670.984 1776.56C671.171 1774.36 669.059 1772.52 666.451 1772.52H649.5V1806.52H649.562Z" fill="black"/>
<path d="M737.485 527.946H542.512C539.283 527.946 536.613 525.802 536.613 523.097V483.081C536.613 480.427 539.221 478.232 542.512 478.232H737.485C740.714 478.232 743.384 480.376 743.384 483.081V523.097C743.384 525.802 740.714 527.946 737.485 527.946Z" fill="black"/>
<path d="M321.896 1598.73V1815.4L309.415 1802.94L303.64 1793.86L303.392 1793.45C300.784 1789.36 299.418 1784.52 299.418 1779.51V1634.56C299.418 1629.61 300.784 1624.76 303.392 1620.62L303.64 1620.22L309.415 1611.13L321.896 1598.73Z" fill="#808080"/>
<path d="M480.42 1634.61V1779.56C480.42 1784.51 479.054 1789.36 476.446 1793.5L476.197 1793.91L470.485 1802.99L458.004 1815.45V1598.78L470.485 1611.23L476.197 1620.32L476.446 1620.72C479.054 1624.76 480.42 1629.61 480.42 1634.61Z" fill="#808080"/>
<path opacity="0.5" d="M309.415 1611.18L321.896 1598.73V1815.4L309.415 1802.94L303.641 1793.86V1620.32L309.415 1611.18Z" fill="#808080"/>
<path opacity="0.5" d="M476.197 1620.27V1793.86L470.422 1802.94L457.941 1815.4V1598.73L470.422 1611.18L476.197 1620.27Z" fill="#808080"/>
<path d="M472.348 1616.49V1797.69C472.348 1809.32 466.449 1819.73 457.197 1826.78C455.148 1828.36 452.913 1829.74 450.553 1830.96C447.635 1832.44 444.53 1833.62 441.239 1834.49C439.066 1835.05 436.83 1835.51 434.533 1835.76C432.608 1836.02 430.621 1836.12 428.572 1836.12H351.266C349.217 1836.12 347.23 1836.02 345.305 1835.76C343.008 1835.51 340.772 1835.05 338.661 1834.49C335.37 1833.62 332.265 1832.44 329.347 1830.96C326.988 1829.74 324.752 1828.36 322.703 1826.78C318.729 1823.77 315.314 1820.09 312.768 1815.96C309.415 1810.5 307.49 1804.27 307.49 1797.69V1616.49C307.49 1609.86 309.415 1603.63 312.768 1598.17C315.314 1594.03 318.667 1590.41 322.703 1587.4C324.752 1585.81 326.988 1584.44 329.347 1583.21C332.265 1581.73 335.37 1580.56 338.661 1579.69C340.834 1579.13 343.07 1578.67 345.305 1578.41C347.23 1578.16 349.217 1578.06 351.266 1578.06H428.572C430.621 1578.06 432.608 1578.16 434.533 1578.41C436.83 1578.67 439.066 1579.13 441.239 1579.69C444.53 1580.56 447.635 1581.73 450.553 1583.21C452.913 1584.44 455.148 1585.81 457.197 1587.4C466.449 1594.44 472.348 1604.85 472.348 1616.49Z" fill="#1A1A1A"/>
<path d="M329.347 1583.21V1830.91C326.988 1829.69 324.752 1828.31 322.703 1826.73V1587.35C324.752 1585.81 326.988 1584.44 329.347 1583.21Z" fill="black"/>
<path d="M345.304 1578.42V1835.76C343.007 1835.51 340.771 1835.05 338.66 1834.49V1579.69C340.833 1579.13 343.007 1578.67 345.304 1578.42Z" fill="black"/>
<path d="M361.263 1578.06H354.619V1836.12H361.263V1578.06Z" fill="black"/>
<path d="M377.22 1578.06H370.576V1836.12H377.22V1578.06Z" fill="black"/>
<path d="M393.242 1578.06H386.598V1836.12H393.242V1578.06Z" fill="black"/>
<path d="M409.261 1578.06H402.555V1836.12H409.261V1578.06Z" fill="black"/>
<path d="M425.158 1578.06H418.514V1836.12H425.158V1578.06Z" fill="black"/>
<path d="M441.177 1579.69V1834.49C439.004 1835.05 436.768 1835.51 434.471 1835.76V1578.42C436.83 1578.67 439.066 1579.13 441.177 1579.69Z" fill="black"/>
<path d="M457.197 1587.4V1826.78C455.148 1828.36 452.912 1829.74 450.553 1830.96V1583.26C452.85 1584.43 455.086 1585.81 457.197 1587.4Z" fill="black"/>
<path d="M312.768 1598.17V1815.96C309.415 1810.5 307.49 1804.27 307.49 1797.69V1616.49C307.49 1609.86 309.415 1603.63 312.768 1598.17Z" fill="#FCEE21"/>
<path d="M467.07 1598.17V1815.96C470.423 1810.5 472.348 1804.27 472.348 1797.69V1616.49C472.348 1609.86 470.423 1603.63 467.07 1598.17Z" fill="#FCEE21"/>
<path d="M821.995 1598.73V1815.4L809.515 1802.94L803.74 1793.86L803.492 1793.45C800.884 1789.36 799.518 1784.52 799.518 1779.51V1634.56C799.518 1629.61 800.884 1624.76 803.492 1620.62L803.74 1620.22L809.515 1611.13L821.995 1598.73Z" fill="#808080"/>
<path d="M980.582 1634.61V1779.56C980.582 1784.51 979.216 1789.36 976.608 1793.5L976.359 1793.91L970.647 1802.99L958.166 1815.45V1598.78L970.647 1611.23L976.359 1620.32L976.608 1620.72C979.154 1624.76 980.582 1629.61 980.582 1634.61Z" fill="#808080"/>
<path opacity="0.5" d="M809.515 1611.18L821.996 1598.73V1815.4L809.515 1802.94L803.803 1793.86V1620.32L809.515 1611.18Z" fill="#808080"/>
<path opacity="0.5" d="M976.359 1620.27V1793.86L970.584 1802.94L958.104 1815.4V1598.73L970.584 1611.18L976.359 1620.27Z" fill="#808080"/>
<path d="M972.51 1616.49V1797.69C972.51 1809.32 966.611 1819.73 957.359 1826.78C955.31 1828.36 953.075 1829.74 950.715 1830.96C947.797 1832.44 944.692 1833.62 941.401 1834.49C939.228 1835.05 936.993 1835.51 934.757 1835.76C932.832 1836.02 930.845 1836.12 928.796 1836.12H851.428C849.379 1836.12 847.392 1836.02 845.467 1835.76C843.17 1835.51 840.934 1835.05 838.823 1834.49C835.532 1833.62 832.428 1832.44 829.509 1830.96C827.15 1829.74 824.914 1828.36 822.865 1826.78C818.891 1823.77 815.476 1820.09 812.93 1815.96C809.577 1810.5 807.652 1804.27 807.652 1797.69V1616.49C807.652 1609.86 809.577 1603.63 812.93 1598.17C815.476 1594.03 818.829 1590.41 822.865 1587.4C824.914 1585.81 827.15 1584.44 829.509 1583.21C832.428 1581.73 835.532 1580.56 838.823 1579.69C840.996 1579.13 843.232 1578.67 845.467 1578.41C847.392 1578.16 849.379 1578.06 851.428 1578.06H928.672C930.721 1578.06 932.708 1578.16 934.633 1578.41C936.93 1578.67 939.166 1579.13 941.277 1579.69C944.568 1580.56 947.673 1581.73 950.591 1583.21C952.951 1584.44 955.186 1585.81 957.235 1587.4C966.611 1594.44 972.51 1604.85 972.51 1616.49Z" fill="#1A1A1A"/>
<path d="M829.509 1583.21V1830.91C827.15 1829.69 824.914 1828.31 822.865 1826.73V1587.35C824.852 1585.81 827.088 1584.44 829.509 1583.21Z" fill="black"/>
<path d="M845.466 1578.42V1835.76C843.169 1835.51 840.933 1835.05 838.822 1834.49V1579.69C840.933 1579.13 843.169 1578.67 845.466 1578.42Z" fill="black"/>
<path d="M861.425 1578.06H854.781V1836.12H861.425V1578.06Z" fill="black"/>
<path d="M877.382 1578.06H870.738V1836.12H877.382V1578.06Z" fill="black"/>
<path d="M893.341 1578.06H886.697V1836.12H893.341V1578.06Z" fill="black"/>
<path d="M909.361 1578.06H902.717V1836.12H909.361V1578.06Z" fill="black"/>
<path d="M925.32 1578.06H918.676V1836.12H925.32V1578.06Z" fill="black"/>
<path d="M941.339 1579.69V1834.49C939.166 1835.05 936.931 1835.51 934.695 1835.76V1578.42C936.931 1578.67 939.166 1579.13 941.339 1579.69Z" fill="black"/>
<path d="M957.296 1587.4V1826.78C955.247 1828.36 953.012 1829.74 950.652 1830.96V1583.26C953.012 1584.43 955.247 1585.81 957.296 1587.4Z" fill="black"/>
<path d="M812.868 1598.17V1815.96C809.515 1810.5 807.59 1804.27 807.59 1797.69V1616.49C807.652 1609.86 809.515 1603.63 812.868 1598.17Z" fill="#FCEE21"/>
<path d="M967.23 1598.17V1815.96C970.584 1810.5 972.508 1804.27 972.508 1797.69V1616.49C972.508 1609.86 970.584 1603.63 967.23 1598.17Z" fill="#FCEE21"/>
<path d="M970.088 1145.33C970.088 1191.17 965.865 1245.22 949.1 1302.85C943.326 1322.75 935.999 1343.07 926.933 1363.64C918.24 1383.34 907.808 1403.19 895.452 1423.15C836.153 1518.7 728.918 1685.14 707.247 1774.46C705.943 1779.62 704.018 1784.67 701.348 1789.42C695.822 1799.37 687.377 1808.1 676.449 1814.48C668.501 1819.12 659.187 1822.59 649.066 1822.59H630.997C620.875 1822.59 611.561 1819.17 603.613 1814.48C592.623 1808.1 584.24 1799.37 578.714 1789.42C576.044 1784.67 574.057 1779.62 572.815 1774.46C551.083 1685.14 443.848 1518.7 384.611 1423.15C372.254 1403.19 361.885 1383.29 353.129 1363.64C344.002 1343.07 336.737 1322.75 330.962 1302.85C314.197 1245.22 309.975 1191.17 309.975 1145.33C309.975 1107.36 313.949 1079.44 318.047 1060.86C322.207 1041.87 326.429 1032.69 326.429 1032.69L434.658 1033.15L498.303 1033.4L640.124 1034.01L781.883 1033.4L845.529 1033.15L953.757 1032.69C953.757 1032.69 957.98 1041.87 962.14 1060.86C966.114 1079.39 970.088 1107.36 970.088 1145.33Z" fill="#006837"/>
<path d="M498.179 1033.3C482.966 1051.57 470.982 1060.81 470.982 1060.81H316.37C308.67 1060.81 302.461 1055.6 302.461 1049.22V993.845C302.461 988.792 306.373 984.352 312.085 982.871C389.267 962.506 459.246 916.161 504.947 880.279C539.036 853.534 559.651 832.607 559.651 832.607C567.351 931.524 527.052 998.694 498.179 1033.3Z" fill="#06B253"/>
<path d="M977.477 993.896V1049.28C977.477 1055.66 971.206 1060.86 963.568 1060.86H808.956C808.956 1060.86 796.972 1051.67 781.759 1033.35C752.948 998.745 712.649 931.575 720.287 832.607C720.287 832.607 740.902 853.534 774.991 880.279C820.692 916.161 890.671 962.506 967.853 982.871C973.565 984.403 977.477 988.843 977.477 993.896Z" fill="#06B253"/>
<path opacity="0.7" d="M813.364 1451.99C789.582 1534.26 759.467 1611.03 722.273 1660.18L722.397 1661.25L701.286 1789.47C695.759 1799.42 687.315 1808.15 676.386 1814.53C668.438 1819.17 659.124 1822.64 649.003 1822.64H630.934C620.813 1822.64 611.499 1819.22 603.551 1814.53C592.56 1808.15 584.178 1799.42 578.652 1789.47L557.54 1661.25L557.664 1660.18C520.47 1611.03 490.355 1534.26 466.635 1451.99C414.291 1271 392.496 1063.26 392.496 1063.26C392.496 1063.26 394.048 1062.44 396.656 1060.81C403.611 1056.68 418.451 1047.18 434.595 1033.09C451.857 1017.99 470.734 997.57 483.152 972.611C488.616 961.637 496.254 927.848 505.009 880.278C539.098 853.533 559.713 832.606 559.713 832.606C567.351 931.574 527.052 998.744 498.241 1033.35L640.062 1033.96L781.821 1033.35C753.009 998.744 712.711 931.574 720.348 832.606C720.348 832.606 740.963 853.533 775.052 880.278C783.808 927.848 791.445 961.637 796.909 972.611C809.328 997.519 828.204 1017.94 845.466 1033.09C861.61 1047.23 876.451 1056.68 883.405 1060.81C886.075 1062.44 887.565 1063.26 887.565 1063.26C887.565 1063.26 865.709 1271 813.364 1451.99Z" fill="#8B0F12"/>
<path d="M786.043 1451.99C765.986 1534.27 740.652 1611.03 709.295 1660.18L709.357 1661.25L685.265 1835.1C684.52 1840.61 681.291 1845.41 676.634 1848.83C671.915 1852.25 665.768 1854.34 659.062 1854.34H620.937C607.525 1854.34 596.224 1846.07 594.671 1835.1L570.579 1661.25L570.641 1660.18C539.284 1611.03 514.012 1534.27 493.956 1451.99C449.87 1271 431.49 1063.26 431.49 1063.26C431.49 1063.26 483.897 1029.73 507.865 972.613C529.411 921.368 590.697 370.638 603.054 250.284C604.234 238.238 616.528 229 631.182 229H648.754C663.471 229 675.703 238.238 676.945 250.284C689.239 370.638 750.587 921.368 772.072 972.613C796.04 1029.68 848.446 1063.26 848.446 1063.26C848.446 1063.26 830.067 1271 786.043 1451.99Z" fill="#009245"/>
<path d="M585.543 972.615C585.543 972.615 554.682 1072.81 497.246 1092.31C497.246 1092.31 515.315 1278.91 529.845 1363.64C529.845 1363.64 574.552 1319.39 593.304 1226.08L585.543 972.615Z" fill="white"/>
<path d="M694.393 972.615C694.393 972.615 725.253 1072.81 782.689 1092.31C782.689 1092.31 764.62 1278.91 750.09 1363.64C750.09 1363.64 705.383 1319.39 686.631 1226.08L694.393 972.615Z" fill="white"/>
<path d="M786.042 1451.99C784.552 1458.06 783.062 1464.13 781.509 1470.16C780.578 1473.83 779.646 1477.51 778.653 1481.13C759.901 1552.18 736.926 1616.9 709.357 1660.18L709.419 1661.25L685.327 1835.1C684.582 1840.61 681.353 1845.41 676.696 1848.83C671.977 1852.25 665.83 1854.34 659.123 1854.34H620.998C607.586 1854.34 596.285 1846.07 594.733 1835.1L570.641 1661.25L570.703 1660.18C543.133 1616.9 520.159 1552.18 501.407 1481.13C500.413 1477.51 499.482 1473.83 498.55 1470.16C496.998 1464.13 495.508 1458.06 494.018 1451.99C544.872 1414.37 574.987 1356.18 574.987 1356.18H705.072C705.072 1356.18 735.188 1414.32 786.042 1451.99Z" fill="black"/>
<path d="M598.645 1356.18C575.111 1425.29 525.933 1464.9 501.345 1481.13C500.351 1477.51 499.42 1473.83 498.488 1470.16C522.643 1453.11 564.928 1416.26 586.226 1356.18H598.645Z" fill="white"/>
<path d="M781.51 1470.16C780.579 1473.83 779.647 1477.51 778.654 1481.13C754.065 1464.9 704.887 1425.29 681.354 1356.18H693.772C715.07 1416.26 757.356 1453.11 781.51 1470.16Z" fill="white"/>
<path d="M628.699 869.511L629.631 808.415C629.631 808.364 629.631 808.313 629.631 808.313L636.213 759.007C636.213 758.803 636.337 758.65 636.461 758.497L638.696 756.608C638.883 756.455 639.069 756.404 639.255 756.404H640.497C640.683 756.404 640.932 756.455 641.056 756.608L643.291 758.497C643.477 758.65 643.539 758.803 643.539 759.007L650.121 808.313C650.121 808.364 650.121 808.364 650.121 808.415L651.053 869.511C651.053 869.817 650.929 870.123 650.742 870.327C650.556 870.531 650.308 870.634 650.059 870.634H629.569C629.32 870.634 629.072 870.531 628.886 870.327C628.823 870.123 628.699 869.817 628.699 869.511Z" fill="#0BD15F"/>
<path d="M678.497 841.897H601.502C586.91 850.472 576.789 864.253 575.609 880.28L555.553 1153.86C556.049 1154.27 556.236 1154.47 556.732 1154.88H719.914C721.714 1153.35 722.584 1152.58 724.322 1151L704.452 880.28C703.21 864.253 693.089 850.472 678.497 841.897Z" fill="black"/>
<path d="M681.726 922.133H598.086V1156.56H681.726V922.133Z" fill="#1A1A1A"/>
<path d="M653.101 873.491C649.748 873.236 646.83 875.278 646.519 878.034C646.209 880.79 648.693 883.189 652.046 883.444C663.843 884.312 671.17 886.2 675.206 887.987H651.238C649.003 886.047 644.781 884.771 639.937 884.771C635.094 884.771 630.872 886.098 628.636 887.987H604.668C608.767 886.2 616.031 884.312 627.891 883.444C631.244 883.189 633.666 880.79 633.418 878.034C633.107 875.278 630.189 873.236 626.836 873.491C593.305 875.992 588.338 885.741 588.338 891.356C588.338 896.97 593.367 906.719 626.836 909.22C627.022 909.22 627.208 909.22 627.395 909.22C630.499 909.22 633.169 907.28 633.418 904.677C633.728 901.921 631.244 899.522 627.891 899.267C616.094 898.399 608.767 896.511 604.73 894.724H629.133C631.493 896.409 635.467 897.531 639.999 897.531C644.532 897.531 648.506 896.409 650.866 894.724H675.268C671.17 896.511 663.905 898.399 652.108 899.267C648.755 899.522 646.333 901.921 646.581 904.677C646.892 907.28 649.5 909.22 652.604 909.22C652.791 909.22 652.977 909.22 653.163 909.22C686.694 906.719 691.661 896.97 691.661 891.356C691.599 885.792 686.631 876.043 653.101 873.491Z" fill="#1A1A1A"/>
<path d="M714.759 1379.25C714.759 1615.21 681.291 1806.51 639.999 1806.51C598.707 1806.51 565.238 1615.21 565.238 1379.25C565.238 1300.14 569.026 1226.03 575.546 1162.43C575.794 1159.88 576.105 1157.38 576.353 1154.83H703.582C703.83 1157.33 704.141 1159.88 704.389 1162.43C710.971 1226.03 714.759 1300.14 714.759 1379.25Z" fill="#06B253"/>
<path d="M697.683 1161.72C687.065 1178.82 665.209 1190.56 639.999 1190.56C614.789 1190.56 592.932 1178.82 582.252 1161.72C582.5 1159.42 582.749 1157.18 582.997 1154.88H696.938C697.187 1157.13 697.435 1159.42 697.683 1161.72Z" fill="black"/>
<path d="M501.781 1793.75L519.478 1763.08V1897.16L502.029 1953.15H496.689V1806.67L501.781 1793.75Z" fill="black"/>
<path d="M778.157 1793.75L760.461 1763.08V1897.16L777.971 1953.15H783.249V1806.67L778.157 1793.75Z" fill="black"/>
<path d="M782.255 1847.6H497.744V1919.16H782.255V1847.6Z" fill="black"/>
<path d="M782.255 1890.58H497.744V1919.16H782.255V1890.58Z" fill="#06B253"/>
<path d="M782.255 1914.36H497.744V1924.01H782.255V1914.36Z" fill="#333333"/>
<path d="M782.255 1809.47H497.744V1848.78H782.255V1809.47Z" fill="black"/>
<path d="M782.255 1837.5H497.744V1848.83H782.255V1837.5Z" fill="#333333"/>
<path d="M509.915 1763.08L492.715 1809.12V1953.15C492.715 1954.94 495.074 1956.37 498.055 1956.37C501.035 1956.37 503.395 1954.94 503.395 1953.15V1809.83L520.905 1763.08H509.915Z" fill="#1A1A1A"/>
<path d="M770.086 1763.08L787.286 1809.12V1953.15C787.286 1954.94 784.926 1956.37 781.946 1956.37C778.966 1956.37 776.606 1954.94 776.606 1953.15V1809.83L759.096 1763.08H770.086Z" fill="#1A1A1A"/>
<path d="M665.892 1253.34L663.718 1334.54C663.718 1334.6 663.718 1334.65 663.718 1334.7L648.568 1400.28C648.506 1400.54 648.319 1400.8 647.947 1400.95L642.855 1403.45C642.482 1403.65 641.986 1403.76 641.489 1403.76H638.571C638.074 1403.76 637.577 1403.65 637.205 1403.45L632.113 1400.95C631.74 1400.8 631.554 1400.54 631.492 1400.28L616.341 1334.7C616.341 1334.65 616.341 1334.6 616.341 1334.54L614.168 1253.34C614.168 1252.88 614.416 1252.52 614.851 1252.27C615.286 1252.01 615.845 1251.86 616.465 1251.86H663.594C664.215 1251.86 664.774 1252.01 665.209 1252.27C665.643 1252.52 665.892 1252.93 665.892 1253.34Z" fill="#0BD15F"/>
<path d="M680.857 540.094C680.857 558.621 662.54 573.678 640 573.678C617.46 573.678 599.143 558.621 599.143 540.094C599.143 521.566 617.46 506.509 640 506.509C662.54 506.509 680.857 521.515 680.857 540.094Z" fill="#FCEE21"/>
<path d="M381.691 1332.96C381.691 1347.66 369.583 1360.01 353.066 1363.63C343.938 1343.06 336.673 1322.75 330.898 1302.84C334.748 1301.77 338.784 1301.21 343.069 1301.21C364.429 1301.21 381.691 1315.4 381.691 1332.96Z" fill="#FCEE21"/>
<path d="M949.099 1302.79C943.324 1322.7 935.997 1343.01 926.932 1363.58C910.477 1359.96 898.307 1347.61 898.307 1332.91C898.307 1315.35 915.569 1301.16 936.929 1301.16C941.151 1301.21 945.249 1301.77 949.099 1302.79Z" fill="#FCEE21"/>
<path d="M676.137 412.288H603.799V422.088H676.137V412.288Z" fill="white"/>
<path d="M669.431 331.744H610.566V341.544H669.431V331.744Z" fill="white"/>
<path d="M669.431 310.157H610.566V326.133H669.431V310.157Z" fill="white"/>
<path d="M676.137 379.774H603.799V403.713H676.137V379.774Z" fill="white"/>
<path d="M716.995 793.509H562.941V821.479H716.995V793.509Z" fill="white"/>
</g>
<defs>
<clipPath id="clip0_88_119">
<rect width="1280" height="2228" fill="white"/>
</clipPath>
</defs>
</svg>
